<svg xmlns="http://www.w3.org/2000/svg" viewBox="0 0 574.31 493.3"><defs><style>.cls-1{fill:#313131;stroke:#fff;opacity:0.2;}.cls-1,.cls-2{stroke-miterlimit:10;}.cls-2{fill:none;stroke:#fafafa;stroke-width:3px;}</style></defs><title>Element 4</title><g id="Ebene_2" data-name="Ebene 2"><g id="Ebene_3" data-name="Ebene 3"><rect class="cls-1" x="0.5" y="0.5" width="573.31" height="487.3"/><line class="cls-2" x1="264.65" y1="17.19" x2="287.16" y2="44.21"/><line class="cls-2" x1="302.28" y1="47.41" x2="287.16" y2="44.21"/><line class="cls-2" x1="304.96" y1="62.89" x2="302.28" y2="47.41"/><line class="cls-2" x1="303.62" y1="85.7" x2="304.96" y2="62.89"/><line class="cls-2" x1="311.74" y1="102.83" x2="303.62" y2="85.7"/><line class="cls-2" x1="280.48" y1="149.61" x2="309.92" y2="126.22"/><line class="cls-2" x1="244.78" y1="79.7" x2="224.9" y2="134.92"/><line class="cls-2" x1="280.48" y1="149.61" x2="247.2" y2="150.61"/><line class="cls-2" x1="295.68" y1="202.7" x2="280.48" y2="149.61"/><line class="cls-2" x1="284.08" y1="162.18" x2="259.28" y2="150.61"/><line class="cls-2" x1="224.9" y1="134.92" x2="215.67" y2="149.61"/><line class="cls-2" x1="295.68" y1="202.7" x2="291.04" y2="229.7"/><line class="cls-2" x1="381.78" y1="99.7" x2="355.81" y2="143.83"/><line class="cls-2" x1="392.27" y1="101.44" x2="381.78" y2="99.7"/><line class="cls-2" x1="428.28" y1="149.34" x2="413.62" y2="109.91"/><line class="cls-2" x1="437.35" y1="146.22" x2="428.28" y2="149.34"/><line class="cls-2" x1="446.71" y1="164.44" x2="437.35" y2="146.22"/><line class="cls-2" x1="324.92" y1="170.49" x2="342.41" y2="182.51"/><line class="cls-2" x1="330.69" y1="196.2" x2="342.41" y2="182.51"/><line class="cls-2" x1="455.39" y1="185.32" x2="446.71" y2="164.44"/><line class="cls-2" x1="347.21" y1="240.64" x2="392.28" y2="222.7"/><line class="cls-2" x1="477.34" y1="199.7" x2="455.39" y2="185.32"/><line class="cls-2" x1="415.28" y1="319.7" x2="446.71" y2="296.7"/><line class="cls-2" x1="392.27" y1="314.9" x2="415.28" y2="319.7"/><line class="cls-2" x1="347.21" y1="240.64" x2="392.27" y2="314.9"/><line class="cls-2" x1="324.48" y1="220.45" x2="330.69" y2="196.2"/><line class="cls-2" x1="347.21" y1="240.64" x2="324.48" y2="220.45"/><line class="cls-2" x1="446.71" y1="339.3" x2="415.28" y2="319.7"/><line class="cls-2" x1="510.66" y1="356.68" x2="446.71" y2="339.3"/><line class="cls-2" x1="174.08" y1="173.88" x2="165.47" y2="221.61"/><line class="cls-2" x1="115.76" y1="228.39" x2="144.92" y2="211.06"/><line class="cls-2" x1="510.66" y1="356.68" x2="549.02" y2="373.3"/><line class="cls-2" x1="484.28" y1="431.2" x2="549.02" y2="373.3"/><line class="cls-2" x1="425.43" y1="390.68" x2="484.28" y2="431.2"/><line class="cls-2" x1="331.68" y1="394.3" x2="395.06" y2="391.56"/><line class="cls-2" x1="334.06" y1="420.9" x2="328.18" y2="378.66"/><line class="cls-2" x1="369.74" y1="370.2" x2="328.18" y2="378.66"/><line class="cls-2" x1="415.28" y1="319.7" x2="406.78" y2="331.7"/><line class="cls-2" x1="422.23" y1="358.51" x2="406.78" y2="331.7"/><line class="cls-2" x1="492.87" y1="351.85" x2="448.77" y2="394.3"/><line class="cls-2" x1="422.23" y1="358.51" x2="448.77" y2="394.3"/><line class="cls-2" x1="415.28" y1="319.7" x2="422.23" y2="358.51"/><line class="cls-2" x1="369.74" y1="370.2" x2="422.23" y2="358.51"/><line class="cls-2" x1="371.66" y1="344.9" x2="422.23" y2="358.51"/><line class="cls-2" x1="300.42" y1="287.9" x2="371.66" y2="344.9"/><line class="cls-2" x1="341.78" y1="450.65" x2="334.06" y2="420.9"/><line class="cls-2" x1="315.88" y1="440.3" x2="341.78" y2="450.65"/><line class="cls-2" x1="270.28" y1="307.7" x2="264.65" y2="358.51"/><line class="cls-2" x1="318.39" y1="441.3" x2="281.25" y2="392.93"/><line class="cls-2" x1="223.28" y1="394.95" x2="281.25" y2="392.93"/><line class="cls-2" x1="221.59" y1="447.25" x2="238.88" y2="412.64"/><line class="cls-2" x1="303.62" y1="475.98" x2="281.25" y2="491.82"/><line class="cls-2" x1="221.59" y1="447.25" x2="238.88" y2="485.69"/><line class="cls-2" x1="281.25" y1="491.82" x2="238.88" y2="485.69"/><line class="cls-2" x1="223.28" y1="394.95" x2="206.76" y2="350.1"/><line class="cls-2" x1="165.47" y1="221.61" x2="161.32" y2="237.32"/><line class="cls-2" x1="224.9" y1="276.03" x2="161.32" y2="237.32"/><line class="cls-2" x1="174.08" y1="173.88" x2="215.67" y2="204.89"/><line class="cls-2" x1="279.65" y1="193.92" x2="215.67" y2="204.89"/><line class="cls-2" x1="284.16" y1="218.22" x2="279.65" y2="193.92"/><line class="cls-2" x1="253.6" y1="243.92" x2="284.16" y2="218.22"/><line class="cls-2" x1="240.78" y1="276.2" x2="253.6" y2="243.92"/><line class="cls-2" x1="224.9" y1="276.03" x2="240.78" y2="276.2"/><line class="cls-2" x1="105.23" y1="248.24" x2="115.76" y2="228.39"/><line class="cls-2" x1="119.91" y1="254.47" x2="105.23" y2="248.24"/><line class="cls-2" x1="133.24" y1="313.21" x2="119.91" y2="254.47"/><line class="cls-2" x1="106.89" y1="333.11" x2="133.24" y2="313.21"/><line class="cls-2" x1="166.68" y1="338.93" x2="197.77" y2="325.7"/><line class="cls-2" x1="133.24" y1="313.21" x2="166.68" y2="338.93"/><line class="cls-2" x1="197.77" y1="325.7" x2="220.29" y2="288.48"/><line class="cls-2" x1="119.91" y1="254.47" x2="165.47" y2="288.48"/><line class="cls-2" x1="220.29" y1="288.48" x2="165.47" y2="288.48"/><line class="cls-2" x1="161.32" y1="237.32" x2="142.69" y2="232"/><line class="cls-2" x1="105.23" y1="248.24" x2="142.69" y2="232"/><line class="cls-2" x1="221.59" y1="447.25" x2="158.28" y2="452.2"/><line class="cls-2" x1="99.35" y1="410.94" x2="158.28" y2="452.2"/><line class="cls-2" x1="94.88" y1="364.65" x2="101.55" y2="392.64"/><line class="cls-2" x1="166.68" y1="338.93" x2="147.33" y2="372.7"/><line class="cls-2" x1="271.47" y1="310.17" x2="288.74" y2="316.4"/><line class="cls-2" x1="300.42" y1="287.9" x2="288.74" y2="316.4"/><line class="cls-2" x1="314.88" y1="254.47" x2="308.35" y2="271.48"/><line class="cls-2" x1="314.88" y1="276.12" x2="308.35" y2="271.48"/><line class="cls-2" x1="300.42" y1="287.9" x2="314.88" y2="276.12"/><line class="cls-2" x1="294.02" y1="271.48" x2="270.28" y2="307.7"/><line class="cls-2" x1="304.96" y1="250.85" x2="314.88" y2="254.47"/><line class="cls-2" x1="294.02" y1="271.48" x2="304.96" y2="250.85"/><line class="cls-2" x1="304.96" y1="235.25" x2="324.48" y2="220.45"/><line class="cls-2" x1="347.21" y1="240.64" x2="304.96" y2="235.25"/><line class="cls-2" x1="224.9" y1="276.03" x2="220.29" y2="288.48"/><line class="cls-2" x1="262.08" y1="291.74" x2="222.44" y2="282.67"/><line class="cls-2" x1="284.78" y1="266.26" x2="262.08" y2="291.74"/><line class="cls-2" x1="304.96" y1="235.25" x2="291.04" y2="229.7"/><line class="cls-2" x1="240.78" y1="276.2" x2="264.65" y2="258.53"/><line class="cls-2" x1="271.47" y1="284.08" x2="264.65" y2="258.53"/><line class="cls-2" x1="304.96" y1="235.25" x2="284.78" y2="266.26"/><line class="cls-2" x1="291.04" y1="229.7" x2="285.28" y2="264.14"/><line class="cls-2" x1="268.06" y1="248.24" x2="287.16" y2="248.35"/><line class="cls-2" x1="285.28" y1="264.14" x2="294.02" y2="271.48"/><line class="cls-2" x1="435.5" y1="266.26" x2="446.71" y2="296.7"/><line class="cls-2" x1="477.34" y1="199.7" x2="457.85" y2="250.75"/><line class="cls-2" x1="435.5" y1="266.26" x2="457.85" y2="250.75"/><line class="cls-2" x1="455.39" y1="185.32" x2="410.27" y2="199.41"/><line class="cls-2" x1="410.27" y1="199.41" x2="392.28" y2="222.7"/><line class="cls-2" x1="308.35" y1="102.83" x2="309.92" y2="126.22"/><line class="cls-2" x1="174.08" y1="173.88" x2="219.06" y2="146.22"/><line class="cls-2" x1="264.65" y1="17.19" x2="264.65" y2="55.15"/><line class="cls-2" x1="224.9" y1="134.92" x2="247.2" y2="150.61"/><line class="cls-2" x1="324.92" y1="170.49" x2="355.81" y2="143.83"/><line class="cls-2" x1="281.25" y1="392.93" x2="264.65" y2="358.51"/><line class="cls-2" x1="216.67" y1="331.47" x2="206.76" y2="350.1"/><line class="cls-2" x1="197.77" y1="325.7" x2="216.67" y2="331.47"/><line class="cls-2" x1="94.88" y1="364.65" x2="106.89" y2="333.11"/><line class="cls-2" x1="101.55" y1="392.64" x2="147.33" y2="372.7"/><line class="cls-2" x1="395.06" y1="391.56" x2="425.43" y2="390.68"/><line class="cls-2" x1="236.31" y1="396.69" x2="238.88" y2="412.64"/><line class="cls-2" x1="101.55" y1="392.64" x2="99.35" y2="410.94"/><line class="cls-2" x1="318.39" y1="441.3" x2="303.62" y2="475.98"/><line class="cls-2" x1="264.65" y1="258.53" x2="268.06" y2="248.24"/><line class="cls-2" x1="395.66" y1="101.44" x2="413.62" y2="109.91"/><line class="cls-2" x1="264.65" y1="55.15" x2="244.78" y2="79.7"/><line class="cls-2" x1="174.08" y1="173.88" x2="144.92" y2="211.06"/></g></g></svg>