<?xml version="1.0" encoding="utf-8"?>
<!-- Generator: Adobe Illustrator 21.1.0, SVG Export Plug-In . SVG Version: 6.00 Build 0)  -->
<svg version="1.1" id="Ebene_1" xmlns="http://www.w3.org/2000/svg" xmlns:xlink="http://www.w3.org/1999/xlink" x="0px" y="0px"
	 viewBox="0 0 574.3 493.3" style="enable-background:new 0 0 574.3 493.3;" xml:space="preserve">
<style type="text/css">
	.st0{opacity:0.2;fill:#313131;stroke:#FFFFFF;stroke-miterlimit:10;enable-background:new    ;}
	.st1{fill:none;stroke:#FAFAFA;stroke-width:3;stroke-miterlimit:10;}
	.st2{fill:#313131;stroke:#FFFFFF;stroke-miterlimit:10;}
</style>
<title>Element 4</title>
<g id="Ebene_2">
	<g id="Ebene_3">
		<rect x="0.5" y="0.5" class="st0" width="573.3" height="487.3"/>
		<line class="st1" x1="264.6" y1="17.2" x2="287.2" y2="44.2"/>
		<line class="st1" x1="302.3" y1="47.4" x2="287.2" y2="44.2"/>
		<line class="st1" x1="305" y1="62.9" x2="302.3" y2="47.4"/>
		<line class="st1" x1="303.6" y1="85.7" x2="305" y2="62.9"/>
		<line class="st1" x1="308.4" y1="102.8" x2="303.6" y2="85.7"/>
		<line class="st1" x1="279.6" y1="149.6" x2="309.9" y2="126.2"/>
		<line class="st1" x1="244.8" y1="79.7" x2="224.9" y2="134.9"/>
		<line class="st1" x1="279.6" y1="149.6" x2="259.3" y2="150.6"/>
		<line class="st1" x1="295.7" y1="202.7" x2="284.1" y2="162.2"/>
		<line class="st1" x1="284.1" y1="162.2" x2="259.3" y2="150.6"/>
		<line class="st1" x1="224.9" y1="134.9" x2="215.7" y2="149.6"/>
		<line class="st1" x1="295.7" y1="202.7" x2="291" y2="229.7"/>
		<line class="st1" x1="381.8" y1="99.7" x2="355.8" y2="143.8"/>
		<line class="st1" x1="392.3" y1="101.4" x2="381.8" y2="99.7"/>
		<line class="st1" x1="428.3" y1="149.3" x2="413.6" y2="109.9"/>
		<line class="st1" x1="437.4" y1="146.2" x2="428.3" y2="149.3"/>
		<line class="st1" x1="446.7" y1="164.4" x2="437.4" y2="146.2"/>
		<line class="st1" x1="324.9" y1="170.5" x2="342.4" y2="182.5"/>
		<line class="st1" x1="330.7" y1="196.2" x2="342.4" y2="182.5"/>
		<line class="st1" x1="455.4" y1="185.3" x2="446.7" y2="164.4"/>
		<line class="st1" x1="347.2" y1="240.6" x2="392.3" y2="222.7"/>
		<line class="st1" x1="477.3" y1="199.7" x2="455.4" y2="185.3"/>
		<line class="st1" x1="415.3" y1="319.7" x2="446.7" y2="296.7"/>
		<line class="st1" x1="392.3" y1="314.9" x2="415.3" y2="319.7"/>
		<line class="st1" x1="347.2" y1="240.6" x2="392.3" y2="314.9"/>
		<line class="st1" x1="324.5" y1="220.4" x2="330.7" y2="196.2"/>
		<line class="st1" x1="347.2" y1="240.6" x2="324.5" y2="220.4"/>
		<line class="st1" x1="446.7" y1="339.3" x2="415.3" y2="319.7"/>
		<line class="st1" x1="510.7" y1="356.7" x2="446.7" y2="339.3"/>
		<line class="st1" x1="174.1" y1="173.9" x2="165.5" y2="221.6"/>
		<line class="st1" x1="115.8" y1="228.4" x2="144.9" y2="211.1"/>
		<line class="st1" x1="510.7" y1="356.7" x2="549" y2="373.3"/>
		<line class="st1" x1="484.3" y1="431.2" x2="549" y2="373.3"/>
		<line class="st1" x1="425.4" y1="390.7" x2="484.3" y2="431.2"/>
		<line class="st1" x1="330.7" y1="396.7" x2="395.1" y2="391.6"/>
		<line class="st1" x1="330.7" y1="396.7" x2="328.2" y2="378.7"/>
		<line class="st1" x1="369.7" y1="370.2" x2="328.2" y2="378.7"/>
		<line class="st1" x1="415.3" y1="319.7" x2="406.8" y2="331.7"/>
		<line class="st1" x1="422.2" y1="358.5" x2="406.8" y2="331.7"/>
		<line class="st1" x1="492.9" y1="351.9" x2="448.8" y2="394.3"/>
		<line class="st1" x1="422.2" y1="358.5" x2="448.8" y2="394.3"/>
		<line class="st1" x1="415.3" y1="319.7" x2="422.2" y2="358.5"/>
		<line class="st1" x1="369.7" y1="370.2" x2="422.2" y2="358.5"/>
		<line class="st1" x1="371.7" y1="344.9" x2="422.2" y2="358.5"/>
		<line class="st1" x1="300.4" y1="287.9" x2="371.7" y2="344.9"/>
		<line class="st1" x1="341.8" y1="450.6" x2="336.2" y2="423.7"/>
		<line class="st1" x1="315.9" y1="440.3" x2="341.8" y2="450.6"/>
		<line class="st1" x1="270.3" y1="307.7" x2="264.6" y2="358.5"/>
		<line class="st1" x1="318.4" y1="441.3" x2="281.2" y2="392.9"/>
		<line class="st1" x1="236.3" y1="396.7" x2="281.2" y2="392.9"/>
		<line class="st1" x1="221.6" y1="447.2" x2="238.9" y2="412.6"/>
		<line class="st1" x1="303.6" y1="476" x2="281.2" y2="491.8"/>
		<line class="st1" x1="221.6" y1="447.2" x2="238.9" y2="485.7"/>
		<line class="st1" x1="281.2" y1="491.8" x2="238.9" y2="485.7"/>
		<line class="st1" x1="223.3" y1="395" x2="206.8" y2="350.1"/>
		<line class="st1" x1="165.5" y1="221.6" x2="161.3" y2="237.3"/>
		<line class="st1" x1="224.9" y1="276" x2="161.3" y2="237.3"/>
		<line class="st1" x1="174.1" y1="173.9" x2="215.7" y2="204.9"/>
		<line class="st1" x1="279.6" y1="193.9" x2="215.7" y2="204.9"/>
		<line class="st1" x1="284.2" y1="218.2" x2="279.6" y2="193.9"/>
		<line class="st1" x1="253.6" y1="243.9" x2="284.2" y2="218.2"/>
		<line class="st1" x1="240.8" y1="276.2" x2="253.6" y2="243.9"/>
		<line class="st1" x1="224.9" y1="276" x2="240.8" y2="276.2"/>
		<line class="st1" x1="105.2" y1="248.2" x2="115.8" y2="228.4"/>
		<line class="st1" x1="119.9" y1="254.5" x2="105.2" y2="248.2"/>
		<line class="st1" x1="133.2" y1="313.2" x2="119.9" y2="254.5"/>
		<line class="st1" x1="106.9" y1="333.1" x2="133.2" y2="313.2"/>
		<line class="st1" x1="166.7" y1="338.9" x2="197.8" y2="325.7"/>
		<line class="st1" x1="133.2" y1="313.2" x2="166.7" y2="338.9"/>
		<line class="st1" x1="197.8" y1="325.7" x2="220.3" y2="288.5"/>
		<line class="st1" x1="119.9" y1="254.5" x2="165.5" y2="288.5"/>
		<line class="st1" x1="220.3" y1="288.5" x2="165.5" y2="288.5"/>
		<line class="st1" x1="161.3" y1="237.3" x2="142.7" y2="232"/>
		<line class="st1" x1="105.2" y1="248.2" x2="142.7" y2="232"/>
		<line class="st1" x1="221.6" y1="447.2" x2="158.3" y2="452.2"/>
		<line class="st1" x1="99.3" y1="410.9" x2="158.3" y2="452.2"/>
		<line class="st1" x1="94.9" y1="364.6" x2="101.6" y2="392.6"/>
		<line class="st1" x1="166.7" y1="338.9" x2="147.3" y2="372.7"/>
		<line class="st1" x1="269.8" y1="308.5" x2="288.7" y2="316.4"/>
		<line class="st1" x1="300.4" y1="287.9" x2="288.7" y2="316.4"/>
		<line class="st1" x1="314.9" y1="254.5" x2="308.4" y2="271.5"/>
		<line class="st1" x1="314.9" y1="276.1" x2="308.4" y2="271.5"/>
		<line class="st1" x1="300.4" y1="287.9" x2="314.9" y2="276.1"/>
		<line class="st1" x1="294" y1="271.5" x2="269.8" y2="308.5"/>
		<line class="st1" x1="305" y1="250.9" x2="314.9" y2="254.5"/>
		<line class="st1" x1="294" y1="271.5" x2="305" y2="250.9"/>
		<line class="st1" x1="305" y1="235.2" x2="324.5" y2="220.4"/>
		<line class="st1" x1="347.2" y1="240.6" x2="305" y2="235.2"/>
		<line class="st1" x1="224.9" y1="276" x2="220.3" y2="288.5"/>
		<line class="st1" x1="262.1" y1="291.7" x2="222.4" y2="282.7"/>
		<line class="st1" x1="271.4" y1="281.3" x2="262.1" y2="291.7"/>
		<line class="st1" x1="305" y1="235.2" x2="291" y2="229.7"/>
		<line class="st1" x1="240.8" y1="276.2" x2="264.6" y2="258.5"/>
		<line class="st1" x1="270.9" y1="282" x2="264.6" y2="258.5"/>
		<line class="st1" x1="305" y1="235.2" x2="285.4" y2="263.9"/>
		<line class="st1" x1="287.2" y1="248.4" x2="285.4" y2="263.9"/>
		<line class="st1" x1="268.1" y1="248.2" x2="287.2" y2="248.4"/>
		<line class="st1" x1="285.4" y1="263.9" x2="294" y2="271.5"/>
		<line class="st1" x1="435.5" y1="266.3" x2="446.7" y2="296.7"/>
		<line class="st1" x1="477.3" y1="199.7" x2="457.9" y2="250.8"/>
		<line class="st1" x1="435.5" y1="266.3" x2="457.9" y2="250.8"/>
		<line class="st1" x1="455.4" y1="185.3" x2="410.3" y2="199.4"/>
		<line class="st1" x1="410.3" y1="199.4" x2="392.3" y2="222.7"/>
		<line class="st1" x1="308.4" y1="102.8" x2="309.9" y2="126.2"/>
		<line class="st1" x1="174.1" y1="173.9" x2="215.7" y2="149.6"/>
		<line class="st1" x1="264.6" y1="17.2" x2="264.6" y2="55.2"/>
		<line class="st1" x1="224.9" y1="134.9" x2="247.2" y2="150.6"/>
		<line class="st1" x1="324.9" y1="170.5" x2="355.8" y2="143.8"/>
		<line class="st1" x1="281.2" y1="392.9" x2="264.6" y2="358.5"/>
		<line class="st1" x1="216.7" y1="331.5" x2="206.8" y2="350.1"/>
		<line class="st1" x1="197.8" y1="325.7" x2="216.7" y2="331.5"/>
		<line class="st1" x1="94.9" y1="364.6" x2="106.9" y2="333.1"/>
		<line class="st1" x1="101.6" y1="392.6" x2="147.3" y2="372.7"/>
		<line class="st1" x1="395.1" y1="391.6" x2="425.4" y2="390.7"/>
		<line class="st1" x1="236.3" y1="396.7" x2="238.9" y2="412.6"/>
		<line class="st1" x1="101.6" y1="392.6" x2="99.3" y2="410.9"/>
		<line class="st1" x1="318.4" y1="441.3" x2="303.6" y2="476"/>
		<line class="st1" x1="264.6" y1="258.5" x2="268.1" y2="248.2"/>
		<line class="st1" x1="392.3" y1="101.4" x2="413.6" y2="109.9"/>
		<line class="st1" x1="264.6" y1="55.2" x2="244.8" y2="79.7"/>
		<line class="st1" x1="174.1" y1="173.9" x2="144.9" y2="211.1"/>
	</g>
</g>
<line class="st1" x1="284.1" y1="162.2" x2="279.6" y2="149.6"/>
<line class="st1" x1="247.2" y1="150.6" x2="259.3" y2="150.6"/>
<line class="st1" x1="285.4" y1="263.9" x2="270.9" y2="282"/>
<line class="st1" x1="291" y1="229.7" x2="287.2" y2="248.4"/>
<line class="st1" x1="223.3" y1="395" x2="236.3" y2="396.7"/>
<circle class="st2" cx="305" cy="64.1" r="4"/>
<circle class="st2" cx="309.1" cy="126.2" r="4"/>
<circle class="st2" cx="224.9" cy="134.9" r="4"/>
<circle class="st2" cx="174.1" cy="173.9" r="4"/>
<circle class="st2" cx="115.8" cy="227.9" r="4"/>
<circle class="st2" cx="94.9" cy="364.6" r="4"/>
<circle class="st2" cx="221.6" cy="447.2" r="4"/>
<circle class="st2" cx="223.3" cy="395" r="4"/>
<line class="st1" x1="336.2" y1="423.7" x2="330.7" y2="396.7"/>
<circle class="st2" cx="336.2" cy="423.7" r="4"/>
<circle class="st2" cx="425.4" cy="391.6" r="4"/>
<circle class="st2" cx="371.7" cy="344.9" r="4"/>
<circle class="st2" cx="446.7" cy="339.3" r="4"/>
<circle class="st2" cx="510.7" cy="356.7" r="4"/>
<circle class="st2" cx="392.3" cy="101.4" r="4"/>
<circle class="st2" cx="446.7" cy="162.2" r="4"/>
</svg>
