<svg xmlns="http://www.w3.org/2000/svg" viewBox="0 0 574.31 488.3">
    <defs>
        <style>
            .cls-1,
            .cls-11,
            .cls-6 {
                fill: #313131;
            }

            .cls-1,
            .cls-2,
            .cls-3,
            .cls-4 {
                stroke: #fff;
            }

            .cls-1,
            .cls-10,
            .cls-11,
            .cls-2,
            .cls-3,
            .cls-4,
            .cls-5,
            .cls-6,
            .cls-7 {
                stroke-miterlimit: 10;
            }

            .cls-2 {
                fill: #fff;
            }

            .cls-2,
            .cls-3,
            .cls-4,
            .cls-5,
            .cls-6,
            .cls-7 {
                stroke-width: 3px;
            }

            .cls-2,
            .cls-3,
            .cls-5,
            .cls-6,
            .cls-8 {
                opacity: 0.9;
            }

            .cls-10,
            .cls-3,
            .cls-4,
            .cls-5,
            .cls-7,
            .cls-8,
            .cls-9 {
                fill: none;
            }

            .cls-10,
            .cls-5,
            .cls-6,
            .cls-7 {
                stroke: #f9f9f9;
            }

            .cls-11 {
                stroke: #ff502d;
                stroke-width: 6px;
            }
        </style>
    </defs>
    <title>11ai [Wiederhergestellt]</title>
    <g id="Ebene_3" data-name="Ebene 3">
        <rect class="cls-1" x="0.5" y="0.5" width="573.31" height="487.3" />
    </g>
    <g id="Ebene_4" data-name="Ebene 4">
        <circle class="cls-2" cx="112.34" cy="215.95" r="3.39" />
        <circle class="cls-2" cx="162.05" cy="209.17" r="3.39" />
        <circle class="cls-2" cx="170.66" cy="161.43" r="3.39" />
        <circle class="cls-2" cx="301.54" cy="50.45" r="3.39" />
        <circle class="cls-2" cx="304.93" cy="90.38" r="3.39" />
        <circle class="cls-2" cx="212.25" cy="133.78" r="3.39" />
        <circle class="cls-2" cx="382.19" cy="156.41" r="3.39" transform="translate(-25.14 143.38) rotate(-30)" />
        <circle class="cls-2" cx="443.29" cy="151.99" r="3.39" />
        <circle class="cls-2" cx="91.46" cy="352.21" r="3.39" />
        <circle class="cls-2" cx="219.86" cy="382.51" r="3.39" />
        <circle class="cls-2" cx="218.17" cy="434.81" r="3.39" />
        <circle class="cls-2" cx="330.64" cy="408.46" r="3.39" />
        <circle class="cls-2" cx="368.24" cy="332.46" r="3.39" />
        <circle class="cls-2" cx="507.24" cy="344.24" r="3.39" />
        <circle class="cls-2" cx="443.29" cy="326.86" r="3.39" />
        <circle class="cls-2" cx="391.64" cy="379.12" r="3.39" />
        <circle class="cls-2" cx="99.33" cy="392.18" r="3.39" />
    </g>
    <g id="Ebene_2" data-name="Ebene 2">
        <path class="cls-3" d="M200.4,384.33a30.18,30.18,0,0,0,6.8,2.4c2.74.61,4.4.58,4.8,1.6.47,1.19-1.1,2.92-2.8,4.8-2.23,2.47-2.89,2.2-3.6,3.6-1,2,.17,3,0,7.2-.14,3.45-1,3.86-.8,6.8a16.81,16.81,0,0,0,1.2,5.2,115.11,115.11,0,0,0,8.4,16.8c3.92,6.61,4.75,7.58,4.8,10,.1,4.65-2.84,7.16-1.6,8.8,1.93,2.56,9.84-2.59,12.8.4,1,1,.68,4.15,0,10.4-.5,4.64-.77,7-1.6,8.8-1.94,4.21-4.26,4.41-4.4,7.2-.16,3.28,3,4.11,2.8,7.6-.09,1.71-1.13,3.14-3.2,6a44.72,44.72,0,0,1-4.8,5.6"
            transform="translate(1.86 -68.67)" />
        <line class="cls-4" x1="202.26" y1="315.66" x2="193.1" y2="312.88" />
        <line class="cls-4" x1="221.06" y1="428.86" x2="219.46" y2="436.46" />
        <path class="cls-4" d="M271.2,453.93a31.65,31.65,0,0,1-10.4,1.2,35.14,35.14,0,0,1-8.4-1.6c-4.09-1.15-5.19-2-5.6-2.4-1.83-1.6-1.79-2.89-3.2-3.6-1.18-.59-3.19-.68-6.8,1.6"
            transform="translate(1.86 -68.67)" />
        <line class="cls-3" x1="238.66" y1="380.46" x2="232.26" y2="383.26" />
        <line class="cls-3" x1="273.06" y1="385.26" x2="279.4" y2="378.92" />
        <line class="cls-5" x1="418.66" y1="344.86" x2="410.26" y2="350.06" />
        <path class="cls-6" d="M294.21,296.73a32.22,32.22,0,0,1-3.2,8.4c-1.52,2.73-2.85,4.13-4.64,7.69a42.43,42.43,0,0,0-2.16,5.11"
            transform="translate(1.86 -68.67)" />
        <path class="cls-7" d="M285.75,315.69l-5.47,4.68q2.24-10.66,4.67-21.48,1-4.42,2-8.8" transform="translate(1.86 -68.67)"
        />
        <path class="cls-5" d="M326.4,295.93a42.74,42.74,0,0,1-6.8,5.6c-3.38,2.24-5.1,3.35-6.8,2.8-2.78-.9-3.58-5.56-3.6-8,0-4,2.68-6,2-6.8-1.59-2-16.21,7.5-16.4,7.2-.06-.1,1.41-1.18,6-4.23"
            transform="translate(1.86 -68.67)" />
        <line class="cls-5" x1="328.26" y1="227.26" x2="333.02" y2="222.5" />
        <path class="cls-7" d="M264,336.33a38.86,38.86,0,0,0-.4-6,45.08,45.08,0,0,0-1.6-6.8c-1.1-3.52-1.46-3.31-2-5.6a18.92,18.92,0,0,1-.4-7.6c.48-2.86,1.24-2.71,2-6.4.64-3.11.29-4.18,1.2-4.8,1.12-.76,2.9,0,6.4,1.6,3.76,1.7,4.78,2.74,6.4,2.4a5.29,5.29,0,0,0,3.2-2.8"
            transform="translate(1.86 -68.67)" />
        <line class="cls-7" x1="279.66" y1="232.66" x2="285.81" y2="231.22" />
        <line class="cls-7" x1="265.86" y1="266.66" x2="270.24" y2="272.83" />
        <path class="cls-7" d="M254,315.13a13.75,13.75,0,0,0-6.4,0c-1.91.47-4.18,1-4.8,2.8s.73,4.17,2.4,5.2,2.69.15,4.4,1.2,3.16,3.48,2.4,4.8c-.67,1.15-3.06,1.56-5.6.4"
            transform="translate(1.86 -68.67)" />
        <line class="cls-5" x1="254.86" y1="247.46" x2="260.46" y2="242.66" />
        <line class="cls-5" x1="250.18" y1="261.55" x2="237.38" y2="262.88" />
        <path class="cls-7" d="M294.6,344.13c-2.2,4.64-3.55,7.81-3.2,8s2.42-2.24,2-2.8c-.54-.72-5.63,1.21-8.8,5.2-1,1.32-3.18,4-2.4,6.4.61,1.88,2.62,2.42,2.4,3.6-.25,1.38-3.09,1.19-3.6,2.8s2.07,3,1.6,4.4-4.28,2.17-7.2,1.2a9.32,9.32,0,0,1-5.2-4.8"
            transform="translate(1.86 -68.67)" />
        <line class="cls-5" x1="274.05" y1="301.14" x2="266.43" y2="294.31" />
        <line class="cls-5" x1="295.46" y1="274.46" x2="302.26" y2="278.86" />
        <line class="cls-5" x1="272.06" y1="299.46" x2="272.07" y2="299.46" />
        <path class="cls-5" d="M218,193.13a46.43,46.43,0,0,1-3.2,4.8c-1.91,2.51-2.86,3.77-4.4,4.8-2.73,1.84-4.23,1-7.2,2.4s-4.35,3.67-6,5.6c-6.81,8-14.24,3.29-21.6,11.2-3.68,4-3.09,6.48-7.6,10-1.2.94-3.19,2.28-4,4.8a9.57,9.57,0,0,0,0,4.8c1.31,8.12,2.06,8.15,2,10.8a15.2,15.2,0,0,1-3.2,9.2c-2.23,2.65-4.55,3-4.8,5.2-.19,1.68,1.1,2.09,2,4.8,1,3,.46,5.72,0,8a20.94,20.94,0,0,1-3.2,7.6"
            transform="translate(1.86 -68.67)" />
        <line class="cls-5" x1="223.1" y1="120.5" x2="219.86" y2="124.46" />
        <line class="cls-5" x1="158.66" y1="218.46" x2="157.86" y2="225.26" />
        <path class="cls-7" d="M388,157.13c-.52,3-.43,5.75,1.2,7.2,1.8,1.6,3.87.16,8.4,1.2,1.32.3,5.73,1.32,8.4,4.8,1.54,2,.89,2.73,2.8,7.6a60,60,0,0,0,4,8c3.28,5.88,3.66,5.23,5.6,9.2,2.24,4.57,2.08,6.11,4,7.2,2.6,1.47,4.59-.4,6.8,1.2,1.87,1.35,1.07,3.13,2.8,6.8,1.28,2.71,3,4.34,6.4,7.6a62.27,62.27,0,0,0,6.8,5.6c3.9,2.72,5.29,2.93,6.4,4.8,1.42,2.41,1,5.33.4,7.6"
            transform="translate(1.86 -68.67)" />
        <line class="cls-7" x1="453.86" y1="167.26" x2="449.29" y2="172.88" />
        <line class="cls-7" x1="389.62" y1="90.38" x2="376.46" y2="87.26" />
        <path class="cls-7" d="M95.6,457.13c-.41,3.94.59,5.82,1.6,6.8,2.43,2.38,6.13.75,8,3.2,1.5,2-.39,3.64.8,6,1.79,3.55,7,1.63,13.6,5.6a25.29,25.29,0,0,1,7.2,6.8c3.25,4.57,2.69,7.16,5.6,8.8,2.64,1.49,3.72-.3,8.4,1.2,2.06.66,5.17,1.66,6.8,4.4,1.16,1.95.47,2.94,2,5.2.62.92,1.87,2.75,4,3.2,1.72.36,3.18-.36,4.8-1.2,2.76-1.42,3-2.52,5.2-4,1.77-1.19,2.41-1,8.4-2.8s5.24-1.92,7.6-2.4a38.38,38.38,0,0,1,10.8-.4c2.06.13,4.44.49,9.2,1.2,4.21.63,6.31.94,7.2,1.2,4.87,1.4,4.64,2.79,10.8,5.2,3.17,1.24,5,1.55,5.2,2.8.3,1.62-2.49,2.37-2.8,4.8-.26,2,1.43,3.77,4.4,6.8a34.36,34.36,0,0,0,6.8,5.6c3.24,2,4.25,1.86,4.8,3.2.9,2.18-.75,5.09-2.4,8-1.74,3.08-2.69,3.52-2.4,4.4.59,1.77,4.78.89,13.2,2.8.71.16,2.07.51,4.8,1.2,7.24,1.84,6.95,1.9,8,2,0,0,1.5.15,9.6-.8,4.54,2.6,6.78,2.35,8,1.6,1.6-1,1.14-2.69,3.2-4.4s3.43-.66,6-2.4,1.76-3,4-4.4c2.62-1.69,3.82-.06,7.2-1.6,2-.93,1.37-1.42,6-4.8,1.95-1.42,2.59-1.72,3.2-2.8.79-1.4.79-2.83.8-5.2a15.35,15.35,0,0,0-.4-4.4c-.89-3.3-2.55-3.7-2.4-5.6.11-1.39,1-2,3.2-4.4a49.14,49.14,0,0,0,4-5.2"
            transform="translate(1.86 -68.67)" />
        <line class="cls-5" x1="97.46" y1="388.46" x2="98.81" y2="380.02" />
        <line class="cls-5" x1="311.46" y1="433.66" x2="311.67" y2="427.64" />
        <path class="cls-7" d="M122.4,371.13a22,22,0,0,0-7.2,4.4c-2.48,2.3-2.41,3.38-5.2,6-3.54,3.33-4.7,2.57-6.8,5.2s-2.69,5.68-3.2,8.4c-.83,4.48.25,4.79-.8,8.4a25.13,25.13,0,0,1-3.6,7.2c-1.59,2.31-1.9,2-3.2,4-2.92,4.37-3.26,8.47-3.6,8.4s0-3.19.4-3.2c.58,0-.28,7.09,3.2,9.2,2,1.2,3.57-.3,5.6,1.2a5.49,5.49,0,0,1,2,5.6c-.42,1.47-1.53,2.28-2.8,3.2a13.56,13.56,0,0,1-6,2.4"
            transform="translate(1.86 -68.67)" />
        <line class="cls-8" x1="124.26" y1="302.46" x2="129.29" y2="299.07" />
        <line class="cls-5" x1="124.26" y1="302.46" x2="129.29" y2="299.07" />
        <line class="cls-5" x1="92.06" y1="371.86" x2="100.09" y2="381.86" />
        <path class="cls-7" d="M452.8,243.13a17.81,17.81,0,0,1,6,2.4c3.26,2.08,3.63,3.88,6,4.4,3.5.76,6.64-2.32,7.2-1.6s-2.87,2.81-2.8,6c.06,2.63,2.42,3.15,2.4,5.6s-2.18,2.75-4.4,6.4c-1.13,1.85-.68,1.93-2.8,8.4-2,6.15-2.37,5.92-2.8,8.4-.8,4.59.5,4.87-.4,8.8a18.41,18.41,0,0,1-4.8,8.8,13.28,13.28,0,0,1-4.41,3.21c-2.43,1-4.11.73-4.39,1.59-.46,1.43,3.89,3.1,3.6,5.2-.17,1.23-1.74,1.17-4.4,3.2a22.67,22.67,0,0,0-5.6,6.4h0c.32-.19,2-2.82,2.39-2.8.69,0,3.23,6.86-.4,10-2.74,2.38-7,.89-7.2.8-3.35-1.23-4.64-4.32-5.2-4s.87,3.14,2.4,8.8c.86,3.21.59,3,1.2,4.8,1.58,4.74,3.08,5.19,3.6,8.4a9.44,9.44,0,0,1-.8,6.4c-1.56,2.62-3.63,1.95-6.8,5.2-2.08,2.14-1.49,2.74-3.6,4.8a16.27,16.27,0,0,1-6.8,4,24,24,0,0,1-9.2.4"
            transform="translate(1.86 -68.67)" />
        <line class="cls-7" x1="454.66" y1="174.46" x2="449.29" y2="172.88" />
        <line class="cls-7" x1="412.66" y1="297.46" x2="412.14" y2="306.17" />
        <path class="cls-9" d="M316.48,434.88l12.86,5.71" transform="translate(1.86 -68.67)" />
        <path class="cls-5" d="M100.29,302.5c-2.4-6.21,8.67-15.87,16.67-22.86,2.49-2.17,2.19-1.75,19-14.29,19.59-14.56,19.21-14.54,21-15.24,3.94-1.57,9.63-3.18,13.33-8.57,1.59-2.32,1.39-3.25,2.86-4.29,6.09-4.28,19,5.13,20.48,6.19,3,2.23,6.53,4.84,9,9.52,1.7,3.18,1.46,4.54,3.33,6.19,2.93,2.58,7,2.29,12.38,1.9,4.56-.33,7.66-.55,9.52-2.86s.82-4.24,2.38-5.24c2.16-1.38,4.76,2.05,10,3.33,6,1.48,13.29-.46,18.1-3.33,2.56-1.53,4.45-3.35,8.1-3.81a15.76,15.76,0,0,1,5.71.48c3.26.71,7.69,1.67,10,5.24,1.45,2.23,1.44,4.52,1.43,6.67,0,1.38,0,9.1-5.24,13.33s-10.78,1-14.29,5.71c-1.44,1.95-1.49,3.83-3.81,5.24s-3.71.48-5.24,1.9c-1.72,1.6-.63,3.42-1.9,6.67-.41,1.05-.82,1.6-5.71,6.67-5.18,5.36-5.42,5.48-6.19,6.67-1.12,1.74-1.86,3.86-3.33,8.1s-2.2,6.33-2.38,8.57c-.36,4.57,1.11,5.81,0,7.14-1.48,1.79-4.58.15-12.86.48-5.41.21-6.61,1-7.14,1.9-1,1.69.59,3.32,0,6.19a8.31,8.31,0,0,1-1,2.51,10.8,10.8,0,0,1-3.25,3.21c-3.54,2.2-11.07,0-17.14-.48-8.59-.65-7.94,1.55-16.67,1a42.68,42.68,0,0,1-18.1-4.76,31.59,31.59,0,0,1-10.48-8.1c-2.58-3.19-2.4-4.47-4.76-6.19-4.4-3.2-7.3-.38-11.43-3.33-1-.75-2.92-3.51-6.67-9-1.82-2.69-2.38-3.65-3.81-4.29-2.35-1-3.76.27-7.62,0a18,18,0,0,1-6.67-1.9C106.21,307.89,101.51,305.67,100.29,302.5Z"
            transform="translate(1.86 -68.67)" />
        <path class="cls-5" d="M119.33,318.22a87.75,87.75,0,0,1,3.81,11,66,66,0,0,1,2.38,11.9c.54,5.66-.26,6.47,0,12.86a52.64,52.64,0,0,0,1.9,13.81A34.43,34.43,0,0,0,136,383c4.13,4.1,8.2,5.74,15.24,8.57,7.47,3,11.2,4.51,15.24,3.81,5.89-1,6.36-4.63,13.81-5.71,3.39-.49,5.57-.07,7.62-1.9,1.85-1.65,1.16-3,3.33-6.19a18.53,18.53,0,0,1,6.19-5.71c2.83-1.57,3.34-.75,6.19-2.38a18.81,18.81,0,0,0,5.71-5.24,31.43,31.43,0,0,0,2.86-5.71,41.44,41.44,0,0,0,2.86-7.62,25.64,25.64,0,0,0,.48-8.1"
            transform="translate(1.86 -68.67)" />
        <path class="cls-5" d="M97,448.69c2.54-.72,4.39-1.91,8.1-4.29,4.31-2.77,4.55-3.59,8.57-6.19s6.08-3.94,9-4.76c5.54-1.54,6.91.64,12.38-1,1.72-.5,5.83-1.69,8.57-5.24,2-2.62,1.9-4.7,3.33-11.43,1.61-7.55,1.37-9.07,2.86-11,2.22-2.81,5.88-3.84,9.39-4.15"
            transform="translate(1.86 -68.67)" />
        <path class="cls-5" d="M447.43,241.55c-10,5.08-17.36,5.48-22.38,4.76-2.68-.38-6.24-1.29-10,.48-4.43,2.08-6.71,6.74-7.14,7.62-1.62,3.31-.81,4.23-2.38,7.62a20.82,20.82,0,0,1-6.19,7.62c-3.93,3-7.88,3.73-14.29,4.76-7.86,1.26-9.18.07-14.29,1.9-3.11,1.12-5.16,2.47-8.69,4.8-4.51,3-6,4.75-11.79,9-2.65,1.94-4.85,3.41-6.19,4.29"
            transform="translate(1.86 -68.67)" />
        <path class="cls-5" d="M354,428.33c4.83-1.78,8-1.29,10-.4,2.38,1,3.24,2.64,5.2,2.4s2.06-1.93,5.6-4c1.67-1,3.06-1.79,4.8-1.6,2.24.24,2.73,1.88,4,1.6,1.89-.41,1.19-4.12,4-7.2a11.24,11.24,0,0,1,6.4-3.2c2.93-.55,5.32.09,8,.8,4.27,1.14,5.92,2.55,6.4,2,.9-1-4.22-6.9-6.8-9.6a38.36,38.36,0,0,0-7.6-6.4c-1.49-.91-.89-.38-5.6-2.8-4.91-2.53-6-3.35-8.4-3.6a14.66,14.66,0,0,0-4.8.4c-5.21,1.07-6,3.25-8,2.8-2.91-.65-2.37-5.26-6.8-10.8-.75-.94-2.65-2.51-6.4-5.6-6.81-5.61-10.26-8.43-12.4-9.2-5.62-2-7,.49-12-2-1.43-.7-1.52-1-8.4-6.8-3.21-2.71-5.87-4.9-7.2-6-3.21-2.65-6.18-5.62-9.6-8-2.67-1.86-3.72-2.28-4-3.6-.4-1.87,1.26-3.09,4.4-8,2.44-3.81,3.65-5.74,3.2-7.2-.94-3.07-6.49-2.41-7.2-5.2-.39-1.55,1.2-2.27,4.8-8,2.29-3.64,2.88-5.32,3.2-6.8.4-1.87,1-4.56-.4-6-1.7-1.77-6.08-1.34-8.8.8-3.56,2.8-2.16,6.84-6.4,14a32.19,32.19,0,0,1-2.8,4"
            transform="translate(1.86 -68.67)" />
        <line class="cls-7" x1="289.29" y1="260.98" x2="295.06" y2="252.46" />
        <line class="cls-7" x1="216.35" y1="273.96" x2="217.38" y2="278.12" />
        <line class="cls-8" x1="408.26" y1="310.06" x2="412.14" y2="307.17" />
        <path class="cls-10" d="M270.29,436.31" transform="translate(1.86 -68.67)" />
        <path class="cls-10" d="M379.81,362" transform="translate(1.86 -68.67)" />
        <line class="cls-5" x1="341.62" y1="229.15" x2="345.95" y2="225.74" />
        <path class="cls-5" d="M481.2,419.13a79.62,79.62,0,0,1-4.8,6.4,66.13,66.13,0,0,1-6.8,7.2,60.66,60.66,0,0,1-8.4,6.4c-4.11,2.57-4.54,2.08-8.4,4.4-7.33,4.4-7.14,7-10.4,7.2-5.56.41-10.72-6.72-12.8-9.6a69.93,69.93,0,0,1-4.4-7.2c-.73-1.37-.65-1.31-2-4-3.35-6.66-3.85-7-4.8-9.6a27.29,27.29,0,0,1-1.6-12.4c.43-4.51,1.51-4.95,1.2-7.6-.36-3-1.83-3-2-5.6-.27-4.13,3.36-5.94,2.4-8-.86-1.85-4.78-2.55-7.2-1.2-1.82,1-1.49,2.47-3.2,3.6-2.9,1.92-8.6.86-9.6-2-.81-2.31,1.65-5.15,3.2-6.4a9.57,9.57,0,0,1,4.8-2"
            transform="translate(1.86 -68.67)" />
        <line class="cls-5" x1="487.38" y1="344.31" x2="483.06" y2="350.46" />
        <path class="cls-5" d="M375.6,155.93a24.13,24.13,0,0,0-4,4.8c-1.62,2.56-1.75,3.86-3.2,7.2a41.29,41.29,0,0,1-5.2,9.2c-2.77,3.58-3.9,3.43-6,6.8-1.65,2.64-1.25,3.21-2.8,6.4a28.68,28.68,0,0,1-8.4,10.8c-3.26,2.41-4.8,2.12-8,5.2-1.7,1.64-1.67,2.12-3.6,4.4-4.1,4.86-6,4.76-10,9.2-.74.82-6.17,6.82-4.8,8.8.7,1,2.44-.14,5.6.8,1.39.41,1.92.89,6.4,4.4,5,3.89,5.56,4.27,5.6,5.2s-.4,1.61-5.6,6c-4.55,3.84-5,3.94-5.6,5.2-1.29,2.83.35,4-1.2,7.6a23.26,23.26,0,0,1-2.8,4.4c-1.11,1.52-2.8,3.6-2.8,3.6h0"
            transform="translate(1.86 -68.67)" />
        <line class="cls-7" x1="321.06" y1="196.26" x2="319.29" y2="204.26" />
        <line class="cls-5" x1="277.5" y1="136.62" x2="266.83" y2="137.17" />
        <path class="cls-5" d="M119.33,318.22l-4.76-7.62c-6.95-5.25-7.86-8.17-7.37-9.87.54-1.89,2.7-1.84,8.4-6,4.11-3,3.85-3.64,6-4.4,3.14-1.11,4.4,0,8.8-1.2,3.17-.88,3.16-1.65,4.8-1.6,3.46.11,3.82,3.54,8,5.6,5,2.44,11.5,1.07,12.8.8,2.71-.57,4.41-1.45,6.19-.48s1.65,2.56,2.86,4.29c2,2.86,4.7,2.07,11.43,4.29,0,0,8.13,2.67,13.81,7.62a17.51,17.51,0,0,1,3.3,3.48c1.21,1.75,1.38,2.79,2.81,4.73a22.89,22.89,0,0,0,2.47,2.74c5.33,5,15.71,4.93,19,11,2,3.54.47,7.38,3.58,9.25a8.65,8.65,0,0,0,2.61.75c6.83,1.55,8.94,1.78,11.9,2.86a29.11,29.11,0,0,1,3.2,1.3,30.76,30.76,0,0,0,2.88,1.39s.91.36,2,.65a31.78,31.78,0,0,0,11.43.48c.47-.07,8.87-1.48,12.86-5.71.37-.4.75-.84.75-.84a20.27,20.27,0,0,0,3.54-6.3c2.92-8.07,4.38-12.11,6.67-12.75,3.3-.93,8.53,3.82,8.1,7-.32,2.37-3.55,2.69-3.81,5.24-.3,2.92,3.78,4.29,3.33,6.67s-4.28,1.65-7.14,5.24c-1.8,2.26-.77,3.12-2.86,6.67a18.21,18.21,0,0,1-5.71,6.19c-3.53,2.29-5.29,1.36-6.67,3.33s-.83,4.31,0,8.1a51.72,51.72,0,0,0,3.33,9.52c2.43,5.59,3.84,7.4,3.33,10.48-.06.35,0,.13-1,3.58,0,0-1,3.37-1.81,6.42-1.5,5.51-2.25,8.26-2.38,10.48-.33,5.5,2.49,6,4.29,13.33,2.32,9.53-1.48,12.54,1.9,18.1,2.47,4,4.61,2.66,8.1,7.62,3.2,4.56,4.09,9.57,4.76,13.33,1.13,6.35-.07,7,1.43,10.48,1.25,2.85,2.16,2.55,8.1,9,4.65,5.08,5.18,6.47,8.57,9a20.32,20.32,0,0,0,6.67,3.81c3.53,1.09,4.46.07,10,.48a30.69,30.69,0,0,1,11,2.38c4.92,2.23,7,5.27,7.62,4.76.91-.72-3.73-6.23-7.14-16.19a71.55,71.55,0,0,1-2.86-11.43c-.53-3.24-.43-4-1-9.52-1.21-12.84-2.26-14-1-15.71,2.28-3.09,5.89-.22,17.14-2.86,3.9-.92,6.16-1.9,14.29-3.81,3.49-.82,5.47-1.2,8.1-1,3.2.31,4.3,1.26,8.57,2.38a54.39,54.39,0,0,0,9,1.43,114.74,114.74,0,0,0,13.33.48c6.73,0,7-.34,10,0a49.54,49.54,0,0,1,10,2.38,66.27,66.27,0,0,1,11,4.29c4.85,2.5,5.39,3.84,11.9,8.57,6.29,4.56,6.13,3.56,15.71,10,7.05,4.73,10.58,7.1,12.38,8.57,5.54,4.51,7.45,7.11,10.48,6.67,2.53-.37,2.43-2.37,7.62-5.24,3.61-2,4.64-1.58,6.19-3.33,1.79-2,1-3.25,2.86-7.14a34.5,34.5,0,0,1,4.29-6.19,55.07,55.07,0,0,1,5.71-6.67c5.61-5.16,9-2.9,16.67-8.1l7.62-6.67c3.21-2.81,6.24-5.84,9.52-8.57,3.6-3,4.43-3.37,4.76-4.76.88-3.66-3.2-7.9-6.19-10-3.37-2.36-4.64-1.5-11-4.29-5.71-2.52-5.45-3.57-9-4.76-4.41-1.46-7.11-.65-14.76,0-6.31.53-11.6,1-17.14.48-7.17-.65-12.3-2.68-20-5.71a129.26,129.26,0,0,1-16.67-8.1c-6.39-3.58-9.88-5.53-14.29-9-6.39-5.1-6.67-7.09-11.9-10-3.15-1.76-2.81-.9-12.38-4.29-12-4.25-13.37-5.89-17.62-5.24-3.5.53-5.36,2.07-8.1,1-1.72-.7-2.84-2.07-4.76-5.71-2.88-5.47-4.13-9.53-6.67-16.67-1.27-3.57-2.4-6.61-3.33-9-1.05-2.76-2.29-5.81-4.76-11.9a70.67,70.67,0,0,0-3.33-7.62,57.26,57.26,0,0,0-4.29-6.67,54.61,54.61,0,0,0-6.67-8.1,47.68,47.68,0,0,0-11-8c-2.32-1.23-3.09-1.39-4.24-2-4.26-2.21-3.56-5.1-8.57-10.48-3.31-3.55-4.59-3.33-6.67-6.67-1.84-2.95-1.62-4.36-2.86-4.76-3-1-8.48,5.94-11.43,11-2.69,4.57-2.86,6.87-5.24,7.62-1.07.34-1.64.07-8.57-2.38-4.85-1.71-6-2.08-6.67-3.33-1.11-2-.17-4.39.48-6.19,3.15-8.79,5.73-16,3.81-21.43-.72-2-1.06-1-6.72-9.41-1.71-2.53-2.65-3.93-3.75-5.82a67.1,67.1,0,0,1-6.67-15.71c-1.07-3.84-1.89-6.86-1.71-11a19.21,19.21,0,0,1,1.71-7.61,21.43,21.43,0,0,1,3-4.36,54.8,54.8,0,0,1,6.55-7.07c7.26-6.48,11.7-6.68,15.74-12.79a22.94,22.94,0,0,0,1.41-2.44c1.92-3.9,2-7.08,2.38-11.43.67-7.53,1.15-6.1,1.43-11.43.26-4.88.42-7.94-.48-11.9-1.23-5.46-2.71-4.81-2.86-8.57-.13-3.16.86-5.12,1-11.43,0-.5,0-1.08,0-1.89-.08-3.88-.57-5.18-1-9.06-.35-3.57-.52-5.35-.34-6.36.23-1.27.78-3.23-.14-5.21a6.29,6.29,0,0,0-.47-.82c-1.87-2.7-10.56-1.86-15.71-3.81-2.37-.9-2.8-1.93-11.9-14.76-8.25-11.62-9.6-13.17-11-12.86-3.68.85-3.77,14.56-3.81,19.52-.06,8.4,1.15,8.88.48,14.29s-2.29,7.65-7.14,18.57-3.75,10-8.1,19.52c-4.83,10.62-7.24,15.93-10,20-5.08,7.51-10.88,13.28-10.61,22.11a14,14,0,0,0,.13,1.7c1.17,8.24,9.83,14.1,17.1,16.24a27.73,27.73,0,0,0,4.33.9c10.75,1.48,15.4-3.24,20.48-1.43,2.63.94,5.8,3.77,7.81,12.38"
            transform="translate(1.86 -68.67)" />
        <path class="cls-5" d="M324.8,442.73c-.69-1.06-3.17-5.13-1.6-8,1-1.8,3.13-2.32,8.4-3.2,3.71-.62,8.59-1.35,14.4-2"
            transform="translate(1.86 -68.67)" />
        <line class="cls-7" x1="355.86" y1="359.66" x2="347.86" y2="360.86" />
        <line class="cls-5" x1="326.66" y1="374.06" x2="328.33" y2="382.4" />
        <line class="cls-5" x1="407.26" y1="310.06" x2="411.14" y2="307.17" />
        <line class="cls-7" x1="287.38" y1="218.12" x2="287.86" y2="223.66" />
        <line class="cls-7" x1="160.06" y1="333.06" x2="161.84" y2="327.86" />
        <path class="cls-11" d="M237.58,206.52c-1.22-1.64-3.68-3.31-4.2-6.82a3.67,3.67,0,0,1-.05-.43c-.16-3.87,4.66-4.71,4.67-8.67,0-4.59-5.59-6.87-4.67-9.33s6.57-.78,8.67-4-1.31-7.82,0-8.67c1-.65,3.25,2,8.67,6a54.91,54.91,0,0,0,9.33,6c5.4,2.61,6.49,1.59,10,4,4.23,2.9,3.28,4.79,6.67,6.67,6.43,3.56,15-.48,15.33-.67,3.69-1.81,3.57-3.32,6.67-4,4.53-1,6.32,1.91,10,.67a9.86,9.86,0,0,0,6-7.33c.79-4.42-2.58-6.44-1.33-9.33s5.7-3.5,9.33-4c2.4-.33,12.28-1.7,14.67,2.67,1.69,3.09-2.23,5.69-.67,10.67.9,2.86,2.33,2.45,5.33,7.33a53.88,53.88,0,0,1,4,8s5.2,4.39,5.33,6.67c.2,3.58-5.12,5.1-4.67,8,.49,3.18,7.2,3.08,8,6.67.6,2.69-2.92,3.87-3.33,8-.25,2.53,1.16,4.83,4,9.33,3.67,5.83,5.14,6.24,8,11.33,2.18,3.88,3.27,5.82,3.33,8.67.07,3.12-1.14,3.82-2,9.33-.74,4.74.07,4.72-.67,7.33-1.73,6.14-6.78,8.27-6,10,.67,1.47,4.28-.13,10,.67,3,.42,6.93,2.28,14.67,6,7.31,3.51,8.79,4.59,11.33,4,3.94-.92,5.65-4.74,7.33-4,2,.86.06,6.2,2.67,8,2.4,1.66,6.17-1.4,7.33,0,1.41,1.7-2.67,8-2.67,8a66.67,66.67,0,0,0,8,4,33.84,33.84,0,0,0,8,2.67c4.72.8,6.91-.26,7.33.67.69,1.51-3.84,6.89-9.33,7.33s-7.93-4.13-11.33-2.67c-2.79,1.2-1.51,4.46-4.67,7.33-2.82,2.57-5.43,1.4-15.33,3.33-7.72,1.51-8.44,2.68-8.67,3.33-.83,2.44,3.09,4.25,4,10,.25,1.62.67,4.26-.67,6.67-1.85,3.32-4.92,2.41-8,6-1.48,1.72-.84,2-3.33,7.33-2.26,4.83-3.4,7.24-5.33,8.67-3.9,2.87-9,2.17-10,2-5.38-.87-7.4-4.39-9.33-3.33-2.22,1.22.27,6-2.67,9.33-1.92,2.19-3.65,1-8,3.33-4.71,2.58-3.94,4.74-8,6.67-4.85,2.3-8.12.25-10,2.67-1.44,1.84-.74,4.59,0,7.33,1.69,6.27,4.48,7.39,8,14,4,7.46,3,10.92,6,12,4.18,1.52,8.27-4.48,11.33-2.67,2.45,1.45,2.15,6.68,2,9.33-.22,3.93-1.25,3.92-1.33,8a50.05,50.05,0,0,0,.67,8c1.1-.21,5.74-1,6.67.67,1,1.94-3.21,6.08-4.67,7.33-12.64,10.93-40.09.11-42-.67-17.79-7.22-13.8-13-30.67-20-15.69-6.52-32.18-6.94-47.33-7.33-13.84-.36-12.27,1.06-18.67,0-16-2.65-16.5-10-42-22a30.46,30.46,0,0,1-9.18-4.65c-2.41-1.83-4.68-3.59-4.82-6-.22-3.95,5.44-6.4,4.67-8-.91-1.87-7.31,1.64-11.33-1.33-3.85-2.84-1.64-8.74-5.33-10.67-2.77-1.44-4.92,1.39-8.67,0-3.13-1.16-5.94-4.74-5.33-7.33.9-3.88,9.51-5.73,16-5.33s9.65,3,11.33,1.33c2.64-2.58-3.38-10.52-.67-13.33,2.45-2.54,8.68,2.6,12,0,4-3.16-2.44-12.93,2.67-19.33,2.61-3.28,5.58-2.32,7.33-6s-.6-5.48.67-10.67c1.32-5.37,4.44-6,4-8.67-.33-2-2.85-1.94-9.29-5.79-3.37-2-5.06-3-5.38-4.21-.92-3.33,4.87-5,8.67-12.67,1.55-3.11,2.36-7,4-14.67,1.36-6.39,1.16-7.59.67-8.67-2.23-4.83-9.14-3.86-10-7.33-1-4.06,7.8-7.95,6.67-12-.83-3-6-2.46-6.67-5.33-.73-3,4.27-6.74,8.67-10,8.09-6,9.22-6.34,10-6,2.5,1.09.86,5.8,4,8,2.88,2,5.78-.89,10,.67s3.09,5.5,7.33,8c3.53,2.08,7.42,1.29,14.67-.17,4.89-1,7.45-1.54,9.33-3.83.41-.5,1.29-1.69,2.17-8.67C238.47,212.22,239,208.37,237.58,206.52Z"
            transform="translate(1.86 -68.67)" />
    </g>
</svg>